<svg width="37" height="42" viewBox="0 0 37 42" fill="none" xmlns="http://www.w3.org/2000/svg">
<path opacity="0.3" d="M22 35C30.2843 35 37 28.2843 37 20C37 11.7157 30.2843 5 22 5C13.7157 5 7 11.7157 7 20C7 28.2843 13.7157 35 22 35Z" fill="#008751"/>
<mask id="mask0_1_2156" style="mask-type:alpha" maskUnits="userSpaceOnUse" x="13" y="12" width="18" height="16">
<path d="M27.0865 12.2971H16.9141C15.2572 12.2971 13.9141 13.6403 13.9141 15.2971V24.6994C13.9141 26.3563 15.2572 27.6994 16.9141 27.6994H27.0865C28.7433 27.6994 30.0865 26.3563 30.0865 24.6994V15.2971C30.0865 13.6403 28.7433 12.2971 27.0865 12.2971Z" fill="#E94D1E"/>
</mask>
<g mask="url(#mask0_1_2156)">
<path d="M7.32422 9.1355H36.5134V31.0274H7.32422V9.1355Z" fill="#008751"/>
<path d="M18.1875 9.05444H26.2956V30.9463H18.1875V9.05444Z" fill="white"/>
</g>
</svg>
